<svg xmlns="http://www.w3.org/2000/svg" viewBox="0 0 511.63 456.8"><defs><style>.cls-1{fill:#1a73e8;}</style></defs><title>icon-aleatorio</title><g id="Capa_2" data-name="Capa 2"><g id="Capa_1-2" data-name="Capa 1"><path d="M234.69,242.68q13.13-31.12,22.27-48.82a243.48,243.48,0,0,1,12.85-22.13,115.53,115.53,0,0,1,14.56-17.56,56,56,0,0,1,19.7-12.85A68.67,68.67,0,0,1,328.91,137H402v54.82a9.28,9.28,0,0,0,15.69,6.57l91.36-91.36a9.68,9.68,0,0,0,0-13.14L418,2.85A10.73,10.73,0,0,0,411.12,0,8.78,8.78,0,0,0,402,9.13V63.95H328.91a137.35,137.35,0,0,0-36.55,4.71,140.44,140.44,0,0,0-30.41,12,116.39,116.39,0,0,0-25.7,19.56,228.11,228.11,0,0,0-21.13,23.7,242.22,242.22,0,0,0-18.27,28.55q-9.56,17.13-15.42,30t-14.13,31.69Q154.17,245.25,145,263a243.91,243.91,0,0,1-12.85,22.13,115.68,115.68,0,0,1-14.56,17.56,56,56,0,0,1-19.7,12.85,68.72,68.72,0,0,1-24.84,4.28h-64A8.79,8.79,0,0,0,0,328.9v54.82a8.8,8.8,0,0,0,9.14,9.14h64a137.25,137.25,0,0,0,36.55-4.72,140.76,140.76,0,0,0,30.41-12,116.43,116.43,0,0,0,25.7-19.56,228.59,228.59,0,0,0,21.13-23.69,243.31,243.31,0,0,0,18.27-28.55q9.56-17.14,15.42-30T234.69,242.68Z"/><path class="cls-1" d="M9.14,137h64a63.94,63.94,0,0,1,23.27,4.14,67.15,67.15,0,0,1,18,10,79.63,79.63,0,0,1,14.56,16.13,188.76,188.76,0,0,1,11.56,18.13q4.28,7.85,10.56,20.7,22-51.68,39.12-77.94Q144.47,64,73.09,64h-64A8.79,8.79,0,0,0,0,73.09v54.82A8.79,8.79,0,0,0,9.14,137Z"/><path class="cls-1" d="M418,258.67a10.74,10.74,0,0,0-6.86-2.85A8.78,8.78,0,0,0,402,265v54.82H328.9a63.9,63.9,0,0,1-23.27-4.15,67,67,0,0,1-18-10,79.59,79.59,0,0,1-14.56-16.14,187,187,0,0,1-11.57-18.14q-4.28-7.84-10.56-20.69-22,51.39-38.83,77.94a164.6,164.6,0,0,0,16,19.84q8.28,8.71,15.7,15.28a81.78,81.78,0,0,0,16.84,11.42q9.42,4.86,16.56,8.14a77.17,77.17,0,0,0,18,5.28q10.85,2,18.27,3T333.76,393q12.84.43,20.83.29t23.13-.29q15.13-.14,24.27-.14v54.82a9.26,9.26,0,0,0,9.13,9.13,8.87,8.87,0,0,0,6.56-2.57l91.36-91.36a9.68,9.68,0,0,0,0-13.13Z"/></g></g></svg>