<svg xmlns="http://www.w3.org/2000/svg" viewBox="0 0 325.06 224.16"><defs><style>.cls-1{fill:#bdbaba;}</style></defs><title>dwnld</title><g id="Capa_2" data-name="Capa 2"><g id="Capa_1-2" data-name="Capa 1"><g id="Capa_2-2" data-name="Capa 2"><g id="Capa_1-2-2" data-name="Capa 1-2"><path class="cls-1" d="M195.14,76.41h30.91c6.31,1,11.33,5.32,12.73,10.91A14.79,14.79,0,0,1,237,98.23l-64.58,64.58a14.09,14.09,0,0,1-10,4.51,14.37,14.37,0,0,1-11.09-5.49L91.5,98.23c-1-1.09-3.9-4.55-3.64-9.09.36-6.08,6.26-11.78,14.55-12.73H134v-69a62.8,62.8,0,0,1,61,1Z"/><path class="cls-1" d="M2,127.4a4.57,4.57,0,0,1,3.38-.59H31.21A5.54,5.54,0,0,1,37,128.4a5.37,5.37,0,0,1,1.14,3.8v48.68H286.86L287,132.4a7.07,7.07,0,0,1,6-6l25.18.41A6.46,6.46,0,0,1,323,128.4a6.37,6.37,0,0,1,2,4c.16,42.82,0,74.15-.29,81.38,0,1.53-.22,5.12-2.71,7.62a9.75,9.75,0,0,1-7.51,2.73H9.88A9.83,9.83,0,0,1,3,221.4a10.11,10.11,0,0,1-2.71-8.34L0,131.4A4.84,4.84,0,0,1,2,127.4Z"/></g></g></g></g></svg>